<svg xmlns="http://www.w3.org/2000/svg" viewBox="0 0 116.39 68.17"><defs><style>.cls-1{fill:#ee3124;}.cls-2{fill:#00468b;}</style></defs><title>Asset 1</title><g id="Layer_2" data-name="Layer 2"><g id="Layer_1-2" data-name="Layer 1"><path class="cls-1" d="M116.39,0,83.62,18H96.74a45.25,45.25,0,0,0,3.68,44.74c-3.91-23.43,5.66-46.11,16-62.69"/><path class="cls-2" d="M4.5,61.38a.66.66,0,0,1,.68-.66.67.67,0,1,1-.68.66m.14,1.54H5.71v5.16H4.64Z"/><path class="cls-2" d="M6.81,62.92H7.86v.54a1.66,1.66,0,0,1,1.3-.62,1.76,1.76,0,0,1,.43.06v1a2.11,2.11,0,0,0-.54-.07,1.67,1.67,0,0,0-1.18.43v3.86H6.81Z"/><path class="cls-2" d="M10,67.88V67a4.05,4.05,0,0,0,1.42.31c.68,0,1-.22,1-.7s-.33-.55-1-.77S10,65.25,10,64.32s.75-1.49,1.85-1.49a3.77,3.77,0,0,1,1.3.22v.86a3.42,3.42,0,0,0-1.26-.25c-.59,0-.88.21-.88.59s.26.53.93.74,1.52.57,1.52,1.59-.76,1.58-1.89,1.58A4.14,4.14,0,0,1,10,67.88"/><path class="cls-2" d="M14.35,66.69v-3h-.71v-.78h.72l.19-1.37h.87v1.37H16.6v.78H15.42v2.83c0,.54.19.77.67.77a1.81,1.81,0,0,0,.65-.13V68a2.8,2.8,0,0,1-.9.15c-1,0-1.49-.4-1.49-1.48"/><path class="cls-2" d="M21.68,61.5h1.27l2.36,6.58h-1.2l-.51-1.53H20.89l-.53,1.53H19.24Zm1.64,4.15-.63-1.9c-.15-.44-.33-1-.4-1.3h0c-.08.32-.26.85-.41,1.3l-.66,1.9Z"/><path class="cls-2" d="M25.91,67.82V60.9H27v2.42a1.73,1.73,0,0,1,1.25-.49c1.5,0,2.11,1.17,2.11,2.62a2.5,2.5,0,0,1-2.57,2.71,5.25,5.25,0,0,1-1.86-.35m3.29-2.31c0-1-.32-1.8-1.31-1.8A1.48,1.48,0,0,0,27,64v3.19a2.75,2.75,0,0,0,.81.12c1,0,1.42-.78,1.42-1.82"/><path class="cls-2" d="M31.06,66.34V62.92h1.06v3.25c0,.72.22,1.14,1,1.14a2,2,0,0,0,1-.36v-4h1.07v5.16H34.16v-.41a2.32,2.32,0,0,1-1.42.5c-1.26,0-1.68-.78-1.68-1.83"/><path class="cls-2" d="M38.7,61.51h2.12c2.26,0,3.11,1.58,3.11,3.29a3,3,0,0,1-3.15,3.28H38.7Zm1.93,5.67c1.72,0,2.14-1.11,2.14-2.37s-.4-2.41-2.08-2.41h-.9v4.78Z"/><path class="cls-2" d="M44.89,60.9h1v2.43a2.35,2.35,0,0,1,1.43-.5c1.26,0,1.69.78,1.69,1.83v3.42H48V64.83c0-.72-.21-1.14-1-1.14A1.89,1.89,0,0,0,46,64v4H44.89Z"/><path class="cls-2" d="M52.66,67.59a1.77,1.77,0,0,1-1.35.58,1.44,1.44,0,0,1-1.61-1.46c0-1.07.9-1.58,2.32-1.58l.51,0v-.41c0-.74-.3-1-1.06-1a3.18,3.18,0,0,0-1.3.3v-.87a4,4,0,0,1,1.49-.29c1.21,0,1.93.52,1.93,1.72V66.9c0,.33.15.43.38.43l.19,0v.74a1.4,1.4,0,0,1-.6.12.89.89,0,0,1-.9-.58M52.52,67v-1.2h-.4c-.88,0-1.35.24-1.35.82s.32.74.85.74a1.3,1.3,0,0,0,.91-.35"/><path class="cls-2" d="M54.73,67.82V60.9H55.8v2.42A1.72,1.72,0,0,1,57,62.83c1.5,0,2.11,1.17,2.11,2.62a2.5,2.5,0,0,1-2.57,2.71,5.26,5.26,0,0,1-1.86-.35M58,65.51c0-1-.32-1.8-1.31-1.8a1.47,1.47,0,0,0-.92.31v3.19a2.75,2.75,0,0,0,.81.12c1,0,1.42-.78,1.42-1.82"/><path class="cls-2" d="M59.79,61.38a.66.66,0,0,1,.68-.66.67.67,0,1,1-.68.66m.14,1.54H61v5.16H59.93Z"/><path class="cls-2" d="M64.79,61.5H67c1.36,0,2.08.67,2.08,1.67a1.46,1.46,0,0,1-1.07,1.45v0a1.5,1.5,0,0,1,1.28,1.54c0,1.15-.85,1.9-2.23,1.9H64.79Zm2.13,2.76c.76,0,1.11-.35,1.11-1s-.34-.91-1.1-.91h-1v1.88Zm0,2.95c.78,0,1.19-.37,1.19-1.06s-.38-1.1-1.17-1.1H65.89v2.15Z"/><path class="cls-2" d="M72.92,67.59a1.77,1.77,0,0,1-1.35.58A1.44,1.44,0,0,1,70,66.71c0-1.07.9-1.58,2.32-1.58l.51,0v-.41c0-.74-.3-1-1.06-1a3.18,3.18,0,0,0-1.3.3v-.87a4,4,0,0,1,1.49-.29c1.21,0,1.93.52,1.93,1.72V66.9c0,.33.15.43.38.43l.19,0v.74a1.4,1.4,0,0,1-.6.12.89.89,0,0,1-.9-.58M72.78,67v-1.2h-.4c-.88,0-1.35.24-1.35.82s.32.74.85.74a1.3,1.3,0,0,0,.91-.35"/><path class="cls-2" d="M75,62.92h1v.41a2.34,2.34,0,0,1,1.43-.5c1.26,0,1.69.78,1.69,1.83v3.42H78.1V64.83c0-.72-.21-1.14-1-1.14a1.89,1.89,0,0,0-1,.36v4H75Z"/><path class="cls-2" d="M82.74,67.41l-1.47-1.93v2.61H80.21V60.9h1.07v4.28l1.83-2.26h1.17l-1.93,2.32L83.69,67a.62.62,0,0,0,.54.32h.13v.8a1.16,1.16,0,0,1-.32,0,1.45,1.45,0,0,1-1.3-.72"/><polygon class="cls-2" points="0 61.5 3.8 61.5 3.8 62.41 1.1 62.41 1.1 64.22 3.52 64.22 3.52 65.07 1.1 65.07 1.1 68.08 0 68.08 0 61.5"/><path class="cls-2" d="M71.2,48.48c3.61,0,5.56-1.66,5.56-4.91s-1.83-5-5.5-5H66.17v9.94ZM71,33c3.67,0,5.21-1.66,5.21-4.5,0-2.54-1.6-4.2-5.15-4.2H66.17V33Zm-13-15h14c8,0,12.3,3.79,12.3,9.41a8,8,0,0,1-5.8,8.16v.12c4,.89,6.92,3.67,6.92,8.46,0,6.74-5.09,10.71-13.07,10.71H58.07Z"/><path class="cls-2" d="M42.1,41,39,31.51c-.71-2.19-1.42-4.32-1.83-6h-.12c-.47,1.66-1.18,3.9-1.89,6L32,41ZM32.87,18h9.05L55.41,54.82H46.59l-2.37-7.34H29.85l-2.49,7.34H19Z"/><polygon class="cls-2" points="0 17.96 22.6 17.96 22.6 24.64 8.11 24.64 8.11 33.22 21 33.22 21 39.37 8.11 39.37 8.11 54.81 0 54.81 0 17.96"/><path class="cls-2" d="M7.64,4.8A2.18,2.18,0,0,0,5.46,7v.72A2.17,2.17,0,0,0,7.64,9.85H8.79a1,1,0,0,1-.32.68,1,1,0,0,1-.7.28H6.63A.11.11,0,0,0,6.5,11v.76c0,.09,0,.13.13.13H7.77a2.07,2.07,0,0,0,2-2V7A2.17,2.17,0,0,0,7.64,4.8m1.15,4H7.64A1.16,1.16,0,0,1,6.48,7.69V7a1.1,1.1,0,0,1,.34-.81,1.15,1.15,0,0,1,1.63,0A1.1,1.1,0,0,1,8.79,7Z"/><path class="cls-2" d="M15.58,2.66h-.76a.11.11,0,0,0-.12.13v5.3a.8.8,0,0,1-.18.58.85.85,0,0,1-.59.17h-3c-.08,0-.12,0-.12.13v.76a.11.11,0,0,0,.13.13h3a1.77,1.77,0,0,0,1.31-.47,1.75,1.75,0,0,0,.47-1.3V2.79a.11.11,0,0,0-.13-.13"/><path class="cls-2" d="M12.4,3.42a.11.11,0,0,0-.12.13V8.24a.11.11,0,0,0,.13.13h.76c.09,0,.13,0,.13-.12V3.55a.11.11,0,0,0-.13-.13Z"/><path class="cls-2" d="M11.86,2.85h1.86a.09.09,0,0,0,.1-.1v-.3a.09.09,0,0,0-.1-.1H12.65V1.77a.3.3,0,0,1,.1-.23A.31.31,0,0,1,13,1.45a.29.29,0,0,1,.29.19l.06.14a.15.15,0,0,0,.05.06h.08l.28-.12a.1.1,0,0,0,.07-.08.13.13,0,0,0,0,0l-.06-.14A.77.77,0,0,0,13,.94a.81.81,0,0,0-.59.25.8.8,0,0,0-.24.59v.57h-.28a.09.09,0,0,0-.1.1v.3a.09.09,0,0,0,.1.1"/><path class="cls-2" d="M17.62,2.66h-.76a.12.12,0,0,0-.13.13V9.73c0,.08,0,.13.13.13h.76a.11.11,0,0,0,.13-.12V2.79c0-.09,0-.13-.12-.13"/><path class="cls-2" d="M25.32,12h-.7c-.09,0-.13,0-.13.13v.74a.12.12,0,0,0,.13.13h.7a.11.11,0,0,0,.13-.13v-.74a.11.11,0,0,0-.13-.13"/><path class="cls-2" d="M23.8,12h-.7a.11.11,0,0,0-.13.13v.74c0,.09,0,.13.13.13h.7c.08,0,.13,0,.13-.13v-.74A.11.11,0,0,0,23.8,12"/><path class="cls-2" d="M38.32,10.75h-.7a.11.11,0,0,0-.13.13v.74a.11.11,0,0,0,.13.13h.7a.11.11,0,0,0,.13-.13v-.74a.11.11,0,0,0-.13-.13"/><path class="cls-2" d="M44,4.8A4.36,4.36,0,0,0,41.5,5.91V2.79a.11.11,0,0,0-.13-.13h-.76c-.08,0-.12,0-.12.13v6H39a.7.7,0,0,1-.45-.1.22.22,0,0,1,0-.13V5.12A.11.11,0,0,0,38.35,5h-.76c-.08,0-.12,0-.12.13V8.49a.39.39,0,0,1-.08.28.37.37,0,0,1-.26.07H29.32V6.54A1.75,1.75,0,0,0,27.57,4.8a1.66,1.66,0,0,0-1.23.51,1.68,1.68,0,0,0-.51,1.23V10H23a1.19,1.19,0,0,1-.86-.35,1.17,1.17,0,0,1-.35-.86A1.23,1.23,0,0,1,22,8.18a1.19,1.19,0,0,1,.5-.46l.34-.18c.05,0,.08-.06.08-.1a.15.15,0,0,0,0-.07l-.34-.68a.13.13,0,0,0-.07-.06h0l-.06,0L22,6.82a2.28,2.28,0,0,0-1.24,2,2.15,2.15,0,0,0,.65,1.58,2.12,2.12,0,0,0,1.54.65h3.35a.51.51,0,0,0,.51-.51v-4a.73.73,0,1,1,1.45,0v2.8a.48.48,0,0,0,.15.36.48.48,0,0,0,.36.15h8.31a1.34,1.34,0,0,0,.93-.33,1.65,1.65,0,0,0,1.09.33h5.15a1.64,1.64,0,0,0,1.78-1.78V7.16a2.46,2.46,0,0,0-.58-1.71A2,2,0,0,0,44,4.8m1.09,3.27a.8.8,0,0,1-.18.59.81.81,0,0,1-.59.18H41.5V7.21a4.61,4.61,0,0,1,1.24-1A2.81,2.81,0,0,1,44,5.82a1,1,0,0,1,.92.52,1.73,1.73,0,0,1,.18.82Z"/><path class="cls-2" d="M43.25,3.94h.7c.09,0,.13,0,.13-.13V3.07a.12.12,0,0,0-.13-.13h-.7a.11.11,0,0,0-.13.13v.74a.11.11,0,0,0,.13.13"/><path class="cls-2" d="M58.43,5h-.76a.11.11,0,0,0-.13.13V8.49a.39.39,0,0,1-.08.28.39.39,0,0,1-.28.08H51.43V7a2.17,2.17,0,0,0-4.34,0v.72a2.17,2.17,0,0,0,2.17,2.17h1.15a1,1,0,0,1-.32.68,1,1,0,0,1-.7.28H48.25a.11.11,0,0,0-.13.13v.76c0,.09,0,.13.13.13h1.15a2,2,0,0,0,1.41-.59,2,2,0,0,0,.62-1.4h5.76a1.28,1.28,0,0,0,1.37-1.37V5.12A.11.11,0,0,0,58.43,5m-8,3.85H49.25A1.16,1.16,0,0,1,48.1,7.69V7a1.1,1.1,0,0,1,.34-.81,1.11,1.11,0,0,1,.81-.34A1.16,1.16,0,0,1,50.41,7Z"/><path class="cls-2" d="M57.76,10.75h-.7c-.09,0-.13,0-.13.13v.74a.12.12,0,0,0,.13.13h.7a.11.11,0,0,0,.13-.13v-.74a.11.11,0,0,0-.13-.13"/><path class="cls-2" d="M61,1.54H59.94V1A.31.31,0,0,1,60,.75a.31.31,0,0,1,.23-.09.29.29,0,0,1,.29.19l.06.14a.09.09,0,0,0,.08.07h0L61,.93a.09.09,0,0,0,.05-.06.11.11,0,0,0,0,0,.1.1,0,0,0,0,0L61,.66a.76.76,0,0,0-.76-.5.8.8,0,0,0-.59.24.79.79,0,0,0-.24.58v.56h-.28a.09.09,0,0,0-.1.1v.3a.09.09,0,0,0,.1.1H61c.07,0,.1,0,.1-.1v-.3c0-.07,0-.1-.1-.1"/><path class="cls-2" d="M60.46,2.66H59.7c-.09,0-.13,0-.13.13V9.73c0,.08,0,.13.13.13h.75a.11.11,0,0,0,.13-.12V2.79a.11.11,0,0,0-.12-.13"/><path class="cls-2" d="M66.43,6.34h1.86c.06,0,.1,0,.1-.1V5.93c0-.07,0-.1-.1-.1H67.23V5.26A.33.33,0,0,1,67.32,5a.31.31,0,0,1,.23-.09.29.29,0,0,1,.29.19l.06.14a.09.09,0,0,0,.09.06H68l.28-.12a.13.13,0,0,0,.05-.06.12.12,0,0,0,0,0,.14.14,0,0,0,0,0l-.06-.14a.77.77,0,0,0-.76-.51.8.8,0,0,0-.59.24.81.81,0,0,0-.24.59v.56h-.29a.09.09,0,0,0-.1.1v.31a.09.09,0,0,0,.1.1"/><path class="cls-2" d="M79.77,3.94h.7a.11.11,0,0,0,.13-.13V3.07a.11.11,0,0,0-.12-.13h-.7a.11.11,0,0,0-.13.13v.74a.11.11,0,0,0,.13.13"/><path class="cls-2" d="M84.23,5h-.76a.11.11,0,0,0-.12.13V8.49a.39.39,0,0,1-.08.28.4.4,0,0,1-.28.07h-1.9a.59.59,0,0,1-.42-.1.17.17,0,0,1,0-.13V5.11c0-.09,0-.13-.12-.13h-.76c-.08,0-.12,0-.12.13V8.48a.39.39,0,0,1-.08.28.37.37,0,0,1-.26.08H70.9a.6.6,0,0,1-.42-.1s0-.06,0-.13V2.78a.11.11,0,0,0-.13-.13h-.76a.11.11,0,0,0-.13.13V8.48a.39.39,0,0,1-.07.28.37.37,0,0,1-.27.08H65.87a1.2,1.2,0,0,1-1.2-1.21,1.25,1.25,0,0,1,.68-1.12l.34-.18a.11.11,0,0,0,.07-.1.16.16,0,0,0,0-.07l-.35-.68a.13.13,0,0,0-.07-.07h0l-.06,0-.34.17a2.28,2.28,0,0,0-1.23,2,2.21,2.21,0,0,0,2.22,2.22h3.2A1.36,1.36,0,0,0,70,9.52a1.64,1.64,0,0,0,1.09.33h8.14a1.35,1.35,0,0,0,.95-.33,1.63,1.63,0,0,0,1.09.33H83a1.27,1.27,0,0,0,1.37-1.37V5.12A.11.11,0,0,0,84.23,5"/><path class="cls-2" d="M4.32,2.66H3.56a.11.11,0,0,0-.13.13V9.31a1.17,1.17,0,0,1-.35.86,1.16,1.16,0,0,1-.85.35,1.16,1.16,0,0,1-.85-.35A1.16,1.16,0,0,1,1,9.31V6.91c0-.09,0-.13-.12-.13H.13A.12.12,0,0,0,0,6.91v2.4a2.14,2.14,0,0,0,.65,1.57,2.14,2.14,0,0,0,1.57.65,2.15,2.15,0,0,0,1.57-.65,2.14,2.14,0,0,0,.65-1.57V2.79a.11.11,0,0,0-.13-.13"/><path class="cls-2" d="M83.57,10.75h-.7c-.09,0-.13,0-.13.13v.74a.12.12,0,0,0,.13.13h.7a.11.11,0,0,0,.13-.13v-.74a.11.11,0,0,0-.13-.13"/></g></g></svg>