<?xml version="1.0" encoding="UTF-8"?>
<svg width="124px" height="124px" viewBox="0 0 124 124" version="1.1" xmlns="http://www.w3.org/2000/svg" xmlns:xlink="http://www.w3.org/1999/xlink">
    <!-- Generator: Sketch 54.1 (76490) - https://sketchapp.com -->
    <title>safe-icon</title>
    <desc>Created with Sketch.</desc>
    <g id="Page-1" stroke="none" stroke-width="1" fill="none" fill-rule="evenodd">
        <g id="Dribbble" transform="translate(-478.000000, -312.000000)" fill-rule="nonzero">
            <g id="safe-icon" transform="translate(478.000000, 312.000000)">
                <g id="Group">
                    <polygon id="Path" fill="#0072DA" points="115.778261 85.2796522 96.7146087 104.343304 89.0913043 96.72 81.468 104.343304 96.7146087 119.589913 123.401565 92.9029565"></polygon>
                    <rect id="Rectangle" fill="#013E99" x="16.173913" y="118.608696" width="21.5652174" height="5.39130435"></rect>
                    <path d="M16.173913,97.0434783 L16.173913,91.6521739 L10.7826087,91.6521739 L10.7826087,80.8695652 L16.173913,80.8695652 L16.173913,37.7391304 L10.7826087,37.7391304 L10.7826087,26.9565217 L16.173913,26.9565217 L16.173913,21.5652174 C16.173913,18.6 18.6,16.173913 21.5652174,16.173913 L97.0434783,16.173913 C100.008696,16.173913 102.434783,18.6 102.434783,21.5652174 L102.434783,67.3913043 C108.278957,67.3913043 113.767304,68.8415652 118.608696,71.3646957 L118.608696,10.7826087 C118.608696,4.82521739 113.778087,0 107.826087,0 L10.7826087,0 C4.82521739,0 0,4.8306087 0,10.7826087 L0,107.826087 C0,113.778087 4.82521739,118.608696 10.7826087,118.608696 L16.173913,118.608696 L37.7391304,118.608696 L71.3646957,118.608696 C68.8361739,113.767304 67.3913043,108.273565 67.3913043,102.434783 L21.5652174,102.434783 C18.6,102.434783 16.173913,100.008696 16.173913,97.0434783 Z" id="Path" fill="#013E99"></path>
                    <path d="M59.3043478,32.3478261 C44.4135652,32.3478261 32.3478261,44.4189565 32.3478261,59.3043478 C32.3478261,74.1897391 44.4135652,86.2608696 59.3043478,86.2608696 C64.8088696,86.2608696 69.9198261,84.5949565 74.1843478,81.7591304 C76.3085217,78.8586087 78.864,76.3085217 81.7645217,74.1789565 C84.5949565,69.9198261 86.2608696,64.8088696 86.2608696,59.3043478 C86.2608696,44.4189565 74.1951304,32.3478261 59.3043478,32.3478261 Z M68.5612174,53.8591304 C69.510087,55.4603478 70.0869565,57.3095652 70.0869565,59.3043478 C70.0869565,65.2563478 65.2563478,70.0869565 59.3043478,70.0869565 C57.3095652,70.0869565 55.4603478,69.510087 53.8591304,68.5612174 L45.9608696,76.4594783 L42.1492174,72.6424348 L50.0474783,64.7495652 C49.0986087,63.1483478 48.5217391,61.2991304 48.5217391,59.3043478 C48.5217391,53.3523478 53.3415652,48.5217391 59.3043478,48.5217391 C61.2991304,48.5217391 63.1483478,49.0986087 64.7495652,50.0474783 L72.6478261,42.1492174 L76.4594783,45.9608696 L68.5612174,53.8591304 Z" id="Shape" fill="#013E99"></path>
                </g>
            </g>
        </g>
    </g>
</svg>