<?xml version="1.0" encoding="UTF-8"?>
<svg width="151px" height="150px" viewBox="0 0 151 150" version="1.1" xmlns="http://www.w3.org/2000/svg" xmlns:xlink="http://www.w3.org/1999/xlink">
    <!-- Generator: Sketch 54.1 (76490) - https://sketchapp.com -->
    <title>smart-banking</title>
    <desc>Created with Sketch.</desc>
    <g id="Page-1" stroke="none" stroke-width="1" fill="none" fill-rule="evenodd">
        <g id="Dribbble" transform="translate(-325.000000, -214.000000)" fill-rule="nonzero">
            <g id="smart-banking" transform="translate(325.000000, 214.000000)">
                <path d="M35.177459,15 C35.177459,13.6175 34.0537869,12.5 32.6692623,12.5 C31.2847377,12.5 30.1610656,13.6175 30.1610656,15 L30.1610656,20 L25.1446721,20 C23.7601475,20 22.6364754,21.1175 22.6364754,22.5 C22.6364754,23.8825 23.7601475,25 25.1446721,25 L30.1610656,25 L30.1610656,30 C30.1610656,31.3825 31.2847377,32.5 32.6692623,32.5 C34.0537869,32.5 35.177459,31.3825 35.177459,30 L35.177459,25 L40.1963607,25 C41.5808852,25 42.7045574,23.8825 42.7045574,22.5 C42.7045574,21.1175 41.5808852,20 40.1963607,20 L35.177459,20 L35.177459,15 Z" id="Path" fill="#013E99"></path>
                <path d="M138.046131,0 L85.3564426,0 C78.4413443,0 72.815459,5.6075 72.815459,12.5025 L72.815459,47.5 C72.815459,48.8825 73.9391311,50 75.3236557,50 C76.7081803,50 77.8318525,48.8825 77.8318525,47.5 L77.8318525,12.5025 C77.8318525,8.3675 81.2078852,5 85.3564426,5 L138.046131,5 C142.194689,5 145.570721,8.3675 145.570721,12.5025 L145.570721,137.4975 C145.570721,141.6325 142.194689,145 138.046131,145 L85.3564426,145 C82.6726721,145 80.172,143.56 78.8301148,141.24 C78.1378525,140.0425 76.6003279,139.63 75.403918,140.325 C74.2024918,141.0125 73.7911475,142.545 74.4834098,143.74 C76.7207213,147.6 80.8868361,150 85.3564426,150 L138.043623,150 C144.958721,150 150.584607,144.3925 150.584607,137.4975 L150.584607,12.5025 C150.587115,5.6075 144.96123,0 138.046131,0 Z" id="Path" fill="#013E99"></path>
                <path d="M82.8482459,27.5 L82.8482459,52.5 C82.8482459,53.8825 83.971918,55 85.3564426,55 C86.7409672,55 87.8646393,53.8825 87.8646393,52.5 L87.8646393,27.5 C87.8646393,26.12 88.9908197,25 90.3728361,25 L133.022213,25 C134.406738,25 135.532918,26.12 135.532918,27.5 L135.532918,110 C135.532918,111.38 134.406738,112.5 133.022213,112.5 L92.883541,112.5 C91.4990164,112.5 90.3753443,113.6175 90.3753443,115 C90.3753443,116.3825 91.4990164,117.5 92.883541,117.5 L133.024721,117.5 C137.175787,117.5 140.55182,114.135 140.55182,110 L140.55182,27.5 C140.55182,23.365 137.175787,20 133.024721,20 L90.3753443,20 C86.2242787,20 82.8482459,23.365 82.8482459,27.5 Z" id="Path" fill="#013E99"></path>
                <path d="M115.464836,15 C116.849361,15 117.973033,13.8825 117.973033,12.5 C117.973033,11.1175 116.849361,10 115.464836,10 L105.429541,10 C104.045016,10 102.921344,11.1175 102.921344,12.5 C102.921344,13.8825 104.045016,15 105.429541,15 L115.464836,15 Z" id="Path" fill="#013E99"></path>
                <path d="M104.70718,130.875 C104.70718,134.925 108.012984,138.22 112.076262,138.22 C116.139541,138.22 119.445344,134.9275 119.445344,130.875 C119.445344,126.8225 116.139541,123.53 112.076262,123.53 C108.012984,123.53 104.70718,126.8225 104.70718,130.875 Z M114.428951,130.875 C114.428951,132.1675 113.373,133.22 112.076262,133.22 C110.779525,133.22 109.723574,132.1675 109.723574,130.875 C109.723574,129.5825 110.779525,128.53 112.076262,128.53 C113.373,128.53 114.428951,129.5825 114.428951,130.875 Z" id="Shape" fill="#013E99"></path>
                <path d="M122.991934,72.5 C122.991934,73.8825 124.115607,75 125.500131,75 C126.884656,75 128.008328,73.8825 128.008328,72.5 L128.008328,52.5 C128.008328,51.1175 126.884656,50 125.500131,50 C124.115607,50 122.991934,51.1175 122.991934,52.5 L122.991934,72.5 Z" id="Path" fill="#013E99"></path>
                <path d="M125.500131,45 C126.884656,45 128.008328,43.8825 128.008328,42.5 L128.008328,37.5 C128.008328,36.1175 126.884656,35 125.500131,35 C124.115607,35 122.991934,36.1175 122.991934,37.5 L122.991934,42.5 C122.991934,43.8825 124.113098,45 125.500131,45 Z" id="Path" fill="#013E99"></path>
                <path d="M48.2125574,47.6225 L1.79085246,62.6225 C0.729885246,62.965 0.0225737705,63.965 0.0576885246,65.075 C0.0827704918,65.93 0.752459016,86.2525 6.72698361,106.94 C14.8585574,135.11 29.0348852,150 47.723459,150 C66.5901148,150 81.2630656,135.1325 90.1521148,107.0025 C96.6884754,86.315 97.8522787,65.99 97.8974262,65.135 C97.957623,64.005 97.2478033,62.9725 96.1667705,62.6225 L49.762623,47.6225 C49.2559672,47.46 48.7167049,47.46 48.2125574,47.6225 Z M47.723459,145 C11.3947377,145 5.86667213,78.835 5.16437705,66.79 L48.9875902,52.63 L92.7480984,66.7725 C91.7322787,78.945 84.5262295,145 47.723459,145 Z" id="Shape" fill="#0072DA"></path>
                <path d="M46.9082951,57.9375 L11.7734754,70.14 C10.7250492,70.505 10.0428197,71.5125 10.0929836,72.615 C10.2234098,75.435 13.6897377,141.63 47.7309836,141.63 C82.1685246,141.63 85.2385574,75.42 85.3539344,72.6 C85.399082,71.5025 84.7168525,70.5 83.6734426,70.14 L48.5586885,57.9375 C48.0244426,57.7525 47.442541,57.7525 46.9082951,57.9375 Z M47.7334918,136.63 C21.292082,136.63 16.0248689,84.7725 15.2297705,74.235 L47.7334918,62.945 L80.2321967,74.2375 C79.4972951,84.75 74.5135082,136.63 47.7334918,136.63 Z" id="Shape" fill="#0072DA"></path>
                <path d="M27.6528689,100 C27.6528689,111.0275 36.6547869,120 47.723459,120 C58.7921311,120 67.7940492,111.0275 67.7940492,100 C67.7940492,88.9725 58.7921311,80 47.723459,80 C36.6547869,80 27.6528689,88.9725 27.6528689,100 Z M62.7776557,100 C62.7776557,108.2725 56.0255902,115 47.723459,115 C39.4213279,115 32.6692623,108.2725 32.6692623,100 C32.6692623,91.7275 39.4213279,85 47.723459,85 C56.0255902,85 62.7776557,91.7275 62.7776557,100 Z" id="Shape" fill="#0072DA"></path>
                <path d="M44.101623,98.3825 C43.1936557,97.345 41.6059672,97.235 40.5625574,98.145 C39.5191475,99.0525 39.4138033,100.6325 40.3242787,101.6725 L44.6860328,106.645 C45.1625902,107.19 45.8498361,107.5 46.5747049,107.5 C46.5772131,107.5 46.5822295,107.5 46.5847377,107.5 C47.3121148,107.4975 48.0018689,107.18 48.475918,106.6275 L56.5548197,97.2525 C57.4577705,96.205 57.337377,94.6275 56.2864426,93.7275 C55.2355082,92.83 53.6528361,92.9475 52.747377,93.995 L46.5546393,101.18 L44.101623,98.3825 Z" id="Path" fill="#013E99"></path>
                <path d="M45.3983607,71.55 C45.2729508,71.85 45.2227869,72.175 45.2227869,72.5 C45.2227869,72.825 45.2729508,73.15 45.3983607,73.45 C45.5237705,73.75 45.7244262,74.0225 45.9501639,74.275 C46.1759016,74.5 46.4518033,74.675 46.7527869,74.825 C47.0788525,74.95 47.3798361,75 47.7309836,75 C48.4081967,75 49.0352459,74.7475 49.4867213,74.275 C49.9632787,73.8 50.2391803,73.175 50.2391803,72.5 C50.2391803,72.175 50.1639344,71.85 50.0385246,71.55 C49.9131148,71.225 49.737541,70.975 49.4867213,70.725 C49.2609836,70.5 48.985082,70.325 48.6840984,70.2 C47.7560656,69.8 46.652459,70.025 45.9501639,70.725 C45.7244262,70.975 45.5237705,71.225 45.3983607,71.55 Z" id="Path" fill="#013E99"></path>
                <path d="M49.4867213,125.725 C49.2609836,125.5 48.985082,125.325 48.6840984,125.2 C47.7560656,124.8 46.652459,125.0475 45.9501639,125.725 C45.4736066,126.1975 45.2227869,126.85 45.2227869,127.5 C45.2227869,128.175 45.4736066,128.8 45.9501639,129.275 C46.4267213,129.7475 47.0537705,130 47.7309836,130 C48.4081967,130 49.0352459,129.7475 49.4867213,129.275 C49.9632787,128.8 50.2391803,128.175 50.2391803,127.5 C50.2391803,127.175 50.1639344,126.85 50.0385246,126.55 C49.9131148,126.225 49.737541,125.975 49.4867213,125.725 Z" id="Path" fill="#013E99"></path>
            </g>
        </g>
    </g>
</svg>